<?xml version="1.0" encoding="UTF-8"?>
<!DOCTYPE svg PUBLIC "-//W3C//DTD SVG 1.1//EN" "http://www.w3.org/Graphics/SVG/1.1/DTD/svg11.dtd">
<!-- Creator: CorelDRAW 2021 (64-Bit) -->
<svg xmlns="http://www.w3.org/2000/svg" xml:space="preserve" width="400px" height="400px" version="1.1" style="shape-rendering:geometricPrecision; text-rendering:geometricPrecision; image-rendering:optimizeQuality; fill-rule:evenodd; clip-rule:evenodd"
viewBox="0 0 400 400"
 xmlns:xlink="http://www.w3.org/1999/xlink"
 xmlns:xodm="http://www.corel.com/coreldraw/odm/2003">
 <defs>
  <style type="text/css">
   <![CDATA[
    .fil1 {fill:#212532;fill-rule:nonzero}
    .fil0 {fill:#363D52;fill-rule:nonzero}
    .fil2 {fill:white;fill-rule:nonzero}
   ]]>
  </style>
 </defs>
 <g id="Layer_x0020_1">
  <metadata id="CorelCorpID_0Corel-Layer"/>
  <path class="fil0" d="M50 6.25l300 0c24.16,0 43.75,19.59 43.75,43.75l0 300c0,24.16 -19.59,43.75 -43.75,43.75l-300 0c-24.16,0 -43.75,-19.59 -43.75,-43.75l0 -300c0,-24.16 19.59,-43.75 43.75,-43.75z"/>
  <path class="fil1" d="M50 0l300 0c13.8,0 26.3,5.6 35.35,14.65 9.05,9.05 14.65,21.55 14.65,35.35l0 300c0,13.8 -5.6,26.3 -14.65,35.35 -9.05,9.05 -21.55,14.65 -35.35,14.65l-300 0c-13.8,0 -26.3,-5.6 -35.35,-14.65 -9.05,-9.05 -14.65,-21.55 -14.65,-35.35l0 -300c0,-13.8 5.6,-26.3 14.65,-35.35 9.05,-9.05 21.55,-14.65 35.35,-14.65zm300 12.5l-300 0c-10.35,0 -19.73,4.2 -26.51,10.99 -6.79,6.78 -10.99,16.16 -10.99,26.51l0 300c0,10.35 4.2,19.73 10.99,26.51 6.78,6.79 16.16,10.99 26.51,10.99l300 0c10.35,0 19.73,-4.2 26.51,-10.99 6.79,-6.78 10.99,-16.16 10.99,-26.51l0 -300c0,-10.35 -4.2,-19.73 -10.99,-26.51 -6.78,-6.79 -16.16,-10.99 -26.51,-10.99z"/>
  <path class="fil2" d="M137.85 222.27c0.35,-1.58 0.53,-2.99 0.53,-4.22 0,-4.58 -2.29,-7.57 -6.69,-9.16 -2.29,-0.88 -6.52,-1.23 -12.33,-1.4 -5.45,-0.18 -8.98,2.99 -10.21,9.5 -1.58,7.04 -5.98,10.57 -13.2,10.57 -8.28,0 -12.32,-9.16 -12.32,-27.64 0,-1.59 0.17,-4.05 0.35,-7.57 0.88,-12.15 4.4,-18.67 10.74,-19.54 8.62,-1.24 13.73,3.52 15.49,14.08 0.88,4.75 4.05,6.69 9.5,5.98 7.22,-0.88 11.27,-1.4 12.5,-1.93 4.58,-1.59 6.52,-4.76 5.99,-9.16 -1.59,-13.38 -8.98,-23.94 -22.01,-31.51 -10.74,-6.34 -22.88,-9.5 -36.09,-9.5 -18.83,0 -33.44,5.28 -44.01,15.66 -10.56,10.39 -15.84,24.83 -15.84,43.49 0,19.36 5.63,34.15 16.72,44.36 10.74,10.03 25.88,14.96 45.42,14.96 27.64,0 46.13,-12.32 55.46,-36.97z"/>
  <path id="_1" class="fil2" d="M235.2 180.37c0,5.99 -4.05,9.16 -12.32,9.69 -8.63,0.53 -13.21,-2.82 -13.56,-9.69 -0.17,-4.04 1.23,-6.86 4.58,-8.27 2.29,-1.05 5.81,-1.41 10.56,-1.05l2.82 0.17c5.28,0.35 7.92,3.35 7.92,9.15zm-25.88 44.37c0,-2.99 0.71,-5.28 2.29,-6.87 0.7,-0.7 2.29,-1.41 4.58,-1.93 1.05,-0.18 2.81,-0.53 5.1,-0.88l7.4 -1.06c14.96,-2.11 24.82,-6.87 29.57,-14.44 2.99,-4.57 4.4,-10.91 4.4,-19.01 0,-24.82 -18.31,-37.32 -54.92,-37.32l-15.85 0c-11.26,0 -20.24,0.53 -26.93,1.76 -4.05,0.7 -7.04,1.41 -8.8,2.11 -3.17,1.23 -5.46,3 -6.69,5.64 -2.29,4.4 -3.35,20.42 -3.35,48.41 0,29.04 1.59,45.59 4.75,49.47 2.47,2.99 6.17,5.1 11.1,5.98 2.28,0.53 6.68,0.71 13.02,0.88 5.99,0.18 9.86,0.18 11.45,0 11.26,-0.88 18.3,-3.87 20.94,-8.98 1.59,-2.81 2.29,-7.21 2.12,-13.2 -0.18,-4.05 -0.18,-7.57 -0.18,-10.56z"/>
  <path id="_2" class="fil2" d="M325.86 259.24c35.74,-1.23 52.99,-15.14 51.94,-42.07 -0.53,-12.85 -8.81,-23.42 -25.18,-32.04 -5.46,-2.82 -8.1,-5.81 -8.1,-8.98 0,-3.17 1.59,-4.75 4.93,-4.75 2.82,0 6.69,1.76 11.8,5.45 2.99,2.12 5.98,3.17 8.62,3.17 3.35,-0.17 6.52,-3.87 9.16,-11.09 0.53,-1.93 0.7,-3.69 0.7,-5.28 0,-2.99 -0.88,-5.46 -2.82,-7.04 -4.92,-4.4 -10.73,-7.75 -17.42,-10.21 -11.09,-4.23 -23.07,-6.16 -35.92,-5.63 -35.73,1.23 -52.99,15.13 -51.93,42.07 0.53,12.85 8.8,23.41 25.18,32.04 5.45,2.82 8.09,5.81 8.09,8.98 0,3.17 -1.58,4.75 -4.93,4.75 -2.81,0 -6.69,-1.76 -11.79,-5.46 -2.99,-2.11 -5.99,-3.16 -8.63,-3.16 -3.34,0.17 -6.51,3.87 -9.15,11.09 -0.53,1.93 -0.71,3.69 -0.71,5.28 0,2.99 0.88,5.45 2.82,7.04 4.93,4.4 10.74,7.74 17.43,10.21 11.09,4.22 23.06,6.16 35.91,5.63z"/>
 </g>
</svg>
